<svg width="1148" height="1148" viewBox="0 0 1148 1148" fill="none" xmlns="http://www.w3.org/2000/svg">
<ellipse cx="574" cy="573.999" rx="427.938" ry="427.937" fill="white" fill-opacity="0.01"/>
<path d="M1001.44 573.999C1001.44 810.066 810.067 1001.44 574 1001.44C337.933 1001.44 146.562 810.066 146.562 573.999C146.562 337.933 337.933 146.562 574 146.562C810.067 146.562 1001.44 337.933 1001.44 573.999Z" stroke="white" stroke-opacity="0.06"/>
<ellipse cx="574" cy="573.999" rx="574" ry="573.999" fill="white" fill-opacity="0.01"/>
<path d="M1147.5 573.999C1147.5 890.733 890.735 1147.5 574 1147.5C257.265 1147.5 0.5 890.733 0.5 573.999C0.5 257.264 257.265 0.5 574 0.5C890.735 0.5 1147.5 257.264 1147.5 573.999Z" stroke="white" stroke-opacity="0.06"/>
<ellipse cx="284.748" cy="257.085" rx="10.25" ry="10.25" transform="rotate(75 284.748 257.085)" fill="url(#paint0_radial_21839_36188)"/>
<g filter="url(#filter0_f_21839_36188)">
<ellipse cx="930.188" cy="124.281" rx="12.8125" ry="12.8125" fill="url(#paint1_radial_21839_36188)"/>
</g>
<defs>
<filter id="filter0_f_21839_36188" x="914.813" y="108.906" width="30.75" height="30.75" filterUnits="userSpaceOnUse" color-interpolation-filters="sRGB">
<feFlood flood-opacity="0" result="BackgroundImageFix"/>
<feBlend mode="normal" in="SourceGraphic" in2="BackgroundImageFix" result="shape"/>
<feGaussianBlur stdDeviation="1.28125" result="effect1_foregroundBlur_21839_36188"/>
</filter>
<radialGradient id="paint0_radial_21839_36188" cx="0" cy="0" r="1" gradientUnits="userSpaceOnUse" gradientTransform="translate(293.469 247.083) rotate(142.694) scale(31.6644 31.6557)">
<stop stop-color="#A0CCFF" stop-opacity="0.9"/>
<stop offset="0.291667" stop-color="#8ECAFF" stop-opacity="0.64"/>
<stop offset="1" stop-color="#81BAE3" stop-opacity="0"/>
</radialGradient>
<radialGradient id="paint1_radial_21839_36188" cx="0" cy="0" r="1" gradientUnits="userSpaceOnUse" gradientTransform="translate(917.375 135.929) rotate(-45) scale(36.2392 36.2292)">
<stop stop-color="#F3DDB2" stop-opacity="0.9"/>
<stop offset="0.34375" stop-color="#BAA4F8" stop-opacity="0.81"/>
<stop offset="1" stop-color="#5C5AB5" stop-opacity="0"/>
</radialGradient>
</defs>
</svg>
