<svg width="22" height="28" viewBox="0 0 22 28" fill="none" xmlns="http://www.w3.org/2000/svg">
<path d="M10.9922 0.265625C11.2214 0.265625 11.4089 0.338542 11.5547 0.484375C11.7109 0.630208 11.7891 0.817708 11.7891 1.04688V22.1719L11.6953 25.9531L11.2578 25.7969L15.3984 21.4062L20.5234 16.3125C20.5964 16.2396 20.6797 16.1875 20.7734 16.1562C20.8776 16.1146 20.987 16.0938 21.1016 16.0938C21.3203 16.0938 21.5026 16.1719 21.6484 16.3281C21.8047 16.474 21.8828 16.6615 21.8828 16.8906C21.8828 17.099 21.7943 17.2917 21.6172 17.4688L11.5859 27.4688C11.5026 27.5625 11.4089 27.6302 11.3047 27.6719C11.2109 27.7135 11.1068 27.7344 10.9922 27.7344C10.8776 27.7344 10.7734 27.7135 10.6797 27.6719C10.5859 27.6302 10.4922 27.5625 10.3984 27.4688L0.351562 17.4688C0.195312 17.2917 0.117188 17.099 0.117188 16.8906C0.117188 16.6615 0.190104 16.474 0.335938 16.3281C0.481771 16.1719 0.664062 16.0938 0.882812 16.0938C0.997396 16.0938 1.10156 16.1146 1.19531 16.1562C1.29948 16.1875 1.38802 16.2396 1.46094 16.3125L6.58594 21.4062L10.7109 25.7969L10.2891 25.9531L10.1953 22.1719V1.04688C10.1953 0.817708 10.2682 0.630208 10.4141 0.484375C10.5703 0.338542 10.763 0.265625 10.9922 0.265625Z" fill="white" fill-opacity="0.95"/>
</svg>
