<svg width="24" height="17" viewBox="0 0 24 17" fill="none" xmlns="http://www.w3.org/2000/svg">
<path d="M15.4102 0C16.5742 0 17.668 0.222656 18.6914 0.667969C19.7148 1.11328 20.6172 1.73047 21.3984 2.51953C22.1875 3.30078 22.8047 4.20312 23.25 5.22656C23.6953 6.25 23.918 7.33984 23.918 8.49609C23.918 9.65234 23.6953 10.7422 23.25 11.7656C22.8047 12.7891 22.1875 13.6914 21.3984 14.4727C20.6172 15.2539 19.7148 15.8672 18.6914 16.3125C17.668 16.7578 16.5781 16.9805 15.4219 16.9805C14.9453 16.9805 14.4727 16.9375 14.0039 16.8516C14.918 16.25 15.7148 15.5195 16.3945 14.6602C17.0742 13.793 17.6016 12.8359 17.9766 11.7891C18.3594 10.7422 18.5508 9.64453 18.5508 8.49609C18.5508 7.33984 18.3594 6.23828 17.9766 5.19141C17.6016 4.14453 17.0742 3.19141 16.3945 2.33203C15.7148 1.46484 14.918 0.734375 14.0039 0.140625C14.4727 0.046875 14.9414 0 15.4102 0ZM8.49609 16.9805C7.33984 16.9805 6.25 16.7578 5.22656 16.3125C4.20312 15.8672 3.29688 15.2539 2.50781 14.4727C1.72656 13.6914 1.11328 12.7891 0.667969 11.7656C0.222656 10.7422 0 9.65234 0 8.49609C0 7.33984 0.222656 6.25 0.667969 5.22656C1.11328 4.20312 1.72656 3.30078 2.50781 2.51953C3.28906 1.73047 4.19141 1.11328 5.21484 0.667969C6.23828 0.222656 7.32812 0 8.48438 0C9.64062 0 10.7305 0.222656 11.7539 0.667969C12.7852 1.11328 13.6914 1.73047 14.4727 2.51953C15.2539 3.30078 15.8672 4.20312 16.3125 5.22656C16.7578 6.25 16.9805 7.33984 16.9805 8.49609C16.9805 9.65234 16.7578 10.7422 16.3125 11.7656C15.8672 12.7891 15.2539 13.6914 14.4727 14.4727C13.6914 15.2539 12.7891 15.8672 11.7656 16.3125C10.7422 16.7578 9.65234 16.9805 8.49609 16.9805Z" fill="url(#paint0_linear_21726_56946)" fill-opacity="0.95"/>
<defs>
<linearGradient id="paint0_linear_21726_56946" x1="26.0195" y1="7.5" x2="-1.98047" y2="7.5" gradientUnits="userSpaceOnUse">
<stop stop-color="white" stop-opacity="0.5"/>
<stop offset="1" stop-color="white"/>
</linearGradient>
</defs>
</svg>
