<svg width="22" height="28" viewBox="0 0 22 28" fill="none" xmlns="http://www.w3.org/2000/svg">
<path d="M10.9922 27.7344C10.763 27.7344 10.5703 27.6615 10.4141 27.5156C10.2682 27.3698 10.1953 27.1823 10.1953 26.9531V5.82812L10.2891 2.04688L10.7109 2.20312L6.58594 6.59375L1.46094 11.6875C1.38802 11.7604 1.29948 11.8177 1.19531 11.8594C1.10156 11.8906 0.997396 11.9062 0.882812 11.9062C0.664062 11.9062 0.481771 11.8333 0.335938 11.6875C0.190104 11.5312 0.117188 11.3385 0.117188 11.1094C0.117188 10.901 0.195312 10.7083 0.351562 10.5312L10.3984 0.53125C10.4922 0.4375 10.5859 0.369792 10.6797 0.328125C10.7734 0.286458 10.8776 0.265625 10.9922 0.265625C11.1068 0.265625 11.2109 0.286458 11.3047 0.328125C11.4089 0.369792 11.5026 0.4375 11.5859 0.53125L21.6172 10.5312C21.7943 10.7083 21.8828 10.901 21.8828 11.1094C21.8828 11.3385 21.8047 11.5312 21.6484 11.6875C21.5026 11.8333 21.3203 11.9062 21.1016 11.9062C20.987 11.9062 20.8776 11.8906 20.7734 11.8594C20.6797 11.8177 20.5964 11.7604 20.5234 11.6875L15.3984 6.59375L11.2578 2.20312L11.6953 2.04688L11.7891 5.82812V26.9531C11.7891 27.1823 11.7109 27.3698 11.5547 27.5156C11.4089 27.6615 11.2214 27.7344 10.9922 27.7344Z" fill="white" fill-opacity="0.95"/>
</svg>
