<svg width="23" height="23" viewBox="0 0 23 23" fill="none" xmlns="http://www.w3.org/2000/svg">
<g clip-path="url(#clip0_20586_10753)">
<path d="M19.7542 3.25L12.6006 8.56307L13.9235 5.42843L19.7542 3.25Z" fill="#E2761B" stroke="#E2761B" stroke-width="0.5" stroke-linecap="round" stroke-linejoin="round"/>
<path d="M3.2373 3.25L10.3334 8.6134L9.07521 5.42843L3.2373 3.25Z" fill="#E4761B" stroke="#E4761B" stroke-width="0.5" stroke-linecap="round" stroke-linejoin="round"/>
<path d="M17.1772 15.5658L15.272 18.4847L19.3484 19.6063L20.5203 15.6305L17.1772 15.5658Z" fill="#E4761B" stroke="#E4761B" stroke-width="0.5" stroke-linecap="round" stroke-linejoin="round"/>
<path d="M2.48242 15.6305L3.64713 19.6063L7.7236 18.4847L5.81837 15.5658L2.48242 15.6305Z" fill="#E4761B" stroke="#E4761B" stroke-width="0.5" stroke-linecap="round" stroke-linejoin="round"/>
<path d="M7.49386 10.6338L6.35791 12.3521L10.4056 12.5318L10.2618 8.18213L7.49386 10.6338Z" fill="#E4761B" stroke="#E4761B" stroke-width="0.5" stroke-linecap="round" stroke-linejoin="round"/>
<path d="M15.4963 10.6338L12.6923 8.13184L12.5989 12.5318L16.6394 12.3521L15.4963 10.6338Z" fill="#E4761B" stroke="#E4761B" stroke-width="0.5" stroke-linecap="round" stroke-linejoin="round"/>
<path d="M7.72412 18.4847L10.1542 17.2984L8.05484 15.6592L7.72412 18.4847Z" fill="#E4761B" stroke="#E4761B" stroke-width="0.5" stroke-linecap="round" stroke-linejoin="round"/>
<path d="M12.8354 17.2984L15.2727 18.4847L14.9348 15.6592L12.8354 17.2984Z" fill="#E4761B" stroke="#E4761B" stroke-width="0.5" stroke-linecap="round" stroke-linejoin="round"/>
<path d="M15.2727 18.4845L12.8354 17.2982L13.0296 18.8871L13.008 19.5557L15.2727 18.4845Z" fill="#D7C1B3" stroke="#D7C1B3" stroke-width="0.5" stroke-linecap="round" stroke-linejoin="round"/>
<path d="M7.72412 18.4846L9.98883 19.5559L9.97445 18.8872L10.1542 17.2983L7.72412 18.4846Z" fill="#D7C1B3" stroke="#D7C1B3" stroke-width="0.5" stroke-linecap="round" stroke-linejoin="round"/>
<path d="M10.0275 14.1322L8 13.5355L9.43072 12.8812L10.0275 14.1322Z" fill="#233447" stroke="#233447" stroke-width="0.5" stroke-linecap="round" stroke-linejoin="round"/>
<path d="M12.968 14.1322L13.5647 12.8812L15.0027 13.5355L12.968 14.1322Z" fill="#233447" stroke="#233447" stroke-width="0.5" stroke-linecap="round" stroke-linejoin="round"/>
<path d="M7.72798 18.0073L8.07308 15.0884L5.82275 15.1531L7.72798 18.0073Z" fill="#CD6116" stroke="#CD6116" stroke-width="0.5" stroke-linecap="round" stroke-linejoin="round"/>
<path d="M14.9326 15.0884L15.2777 18.0073L17.1829 15.1531L14.9326 15.0884Z" fill="#CD6116" stroke="#CD6116" stroke-width="0.5" stroke-linecap="round" stroke-linejoin="round"/>
<path d="M16.6431 11.8746L12.6025 12.0544L12.9764 14.1321L13.5731 12.8812L15.011 13.5354L16.6431 11.8746Z" fill="#CD6116" stroke="#CD6116" stroke-width="0.5" stroke-linecap="round" stroke-linejoin="round"/>
<path d="M8.00079 13.5354L9.4387 12.8812L10.0282 14.1321L10.4093 12.0544L6.36157 11.8746L8.00079 13.5354Z" fill="#CD6116" stroke="#CD6116" stroke-width="0.5" stroke-linecap="round" stroke-linejoin="round"/>
<path d="M6.35962 12.3518L8.05635 15.659L7.99883 14.0126L6.35962 12.3518Z" fill="#E4751F" stroke="#E4751F" stroke-width="0.5" stroke-linecap="round" stroke-linejoin="round"/>
<path d="M15.0082 14.0127L14.9363 15.6591L16.6402 12.3519L15.0082 14.0127Z" fill="#E4751F" stroke="#E4751F" stroke-width="0.5" stroke-linecap="round" stroke-linejoin="round"/>
<path d="M10.4074 12.5316L10.0264 14.6094L10.5009 17.061L10.6087 13.8329L10.4074 12.5316Z" fill="#E4751F" stroke="#E4751F" stroke-width="0.5" stroke-linecap="round" stroke-linejoin="round"/>
<path d="M12.6009 12.5316L12.4067 13.8257L12.493 17.061L12.9747 14.6094L12.6009 12.5316Z" fill="#E4751F" stroke="#E4751F" stroke-width="0.5" stroke-linecap="round" stroke-linejoin="round"/>
<path d="M12.9744 14.6093L12.4927 17.0609L12.8378 17.2982L14.9371 15.659L15.009 14.0126L12.9744 14.6093Z" fill="#F6851B" stroke="#F6851B" stroke-width="0.5" stroke-linecap="round" stroke-linejoin="round"/>
<path d="M8 14.0126L8.05752 15.659L10.1569 17.2982L10.502 17.0609L10.0275 14.6093L8 14.0126Z" fill="#F6851B" stroke="#F6851B" stroke-width="0.5" stroke-linecap="round" stroke-linejoin="round"/>
<path d="M13.0104 19.5556L13.032 18.887L12.8522 18.7288H10.1418L9.9764 18.887L9.99078 19.5556L7.72607 18.4844L8.51692 19.1314L10.1202 20.2458H12.8738L14.4842 19.1314L15.2751 18.4844L13.0104 19.5556Z" fill="#C0AD9E" stroke="#C0AD9E" stroke-width="0.5" stroke-linecap="round" stroke-linejoin="round"/>
<path d="M12.8375 17.2983L12.4924 17.061H10.5009L10.1558 17.2983L9.97607 18.8872L10.1414 18.729H12.8519L13.0316 18.8872L12.8375 17.2983Z" fill="#161616" stroke="#161616" stroke-width="0.5" stroke-linecap="round" stroke-linejoin="round"/>
<path d="M20.0557 8.90817L20.6668 5.97484L19.7537 3.25L12.8374 8.38333L15.4975 10.6337L19.2577 11.7337L20.0917 10.7631L19.7322 10.5042L20.3073 9.97941L19.8616 9.63431L20.4368 9.19575L20.0557 8.90817Z" fill="#763D16" stroke="#763D16" stroke-width="0.5" stroke-linecap="round" stroke-linejoin="round"/>
<path d="M2.33325 5.97484L2.94436 8.90817L2.55613 9.19575L3.13129 9.63431L2.69273 9.97941L3.26789 10.5042L2.90842 10.7631L3.73521 11.7337L7.49535 10.6337L10.1555 8.38333L3.23913 3.25L2.33325 5.97484Z" fill="#763D16" stroke="#763D16" stroke-width="0.5" stroke-linecap="round" stroke-linejoin="round"/>
<path d="M19.2592 11.7337L15.499 10.6337L16.6422 12.352L14.9382 15.6592L17.1814 15.6304H20.5245L19.2592 11.7337Z" fill="#F6851B" stroke="#F6851B" stroke-width="0.5" stroke-linecap="round" stroke-linejoin="round"/>
<path d="M7.49524 10.6337L3.73511 11.7337L2.48413 15.6304H5.82008L8.05603 15.6592L6.35929 12.352L7.49524 10.6337Z" fill="#F6851B" stroke="#F6851B" stroke-width="0.5" stroke-linecap="round" stroke-linejoin="round"/>
<path d="M12.6003 12.5317L12.8375 8.38337L13.9303 5.42847H9.07739L10.1558 8.38337L10.4075 12.5317L10.4937 13.8402L10.5009 17.0611H12.4924L12.5068 13.8402L12.6003 12.5317Z" fill="#F6851B" stroke="#F6851B" stroke-width="0.5" stroke-linecap="round" stroke-linejoin="round"/>
</g>
<defs>
<clipPath id="clip0_20586_10753">
<rect width="22" height="22" fill="white" transform="translate(0.5 0.5)"/>
</clipPath>
</defs>
</svg>
