<svg width="72" height="72" viewBox="0 0 72 72" fill="none" xmlns="http://www.w3.org/2000/svg">
<g clip-path="url(#clip0_23514_44413)">
<g filter="url(#filter0_d_23514_44413)">
<path d="M64.8291 7.87723C53.3867 8.32864 42.0771 12.9221 33.3411 21.6582C31.9304 23.068 30.6096 24.5651 29.3865 26.1405L16.9721 42.4972L30.2092 55.7342L46.5633 43.3232C48.1389 42.1003 49.6361 40.7797 51.0461 39.3691C59.7838 30.6305 64.3773 19.3217 64.8291 7.87723ZM52.3914 28.5457C51.5775 29.3596 50.5404 29.9139 49.4115 30.1385C48.2825 30.363 47.1123 30.2478 46.0488 29.8073C44.9854 29.3668 44.0764 28.6208 43.4369 27.6637C42.7974 26.7066 42.456 25.5814 42.456 24.4303C42.456 23.2792 42.7974 22.154 43.4369 21.1969C44.0764 20.2398 44.9854 19.4938 46.0488 19.0533C47.1123 18.6128 48.2825 18.4976 49.4115 18.7221C50.5404 18.9467 51.5775 19.501 52.3914 20.315C53.4829 21.4064 54.096 22.8868 54.096 24.4303C54.096 25.9739 53.4829 27.4542 52.3914 28.5457Z" fill="url(#paint0_linear_23514_44413)"/>
</g>
<g filter="url(#filter1_bi_23514_44413)">
<path d="M64.8291 7.87723C53.3867 8.32864 42.0771 12.9221 33.3411 21.6582C31.9304 23.068 30.6096 24.5651 29.3865 26.1405L16.9721 42.4972L30.2092 55.7342L46.5633 43.3232C48.1389 42.1003 49.6361 40.7797 51.0461 39.3691C59.7838 30.6305 64.3773 19.3217 64.8291 7.87723ZM52.3914 28.5457C51.5775 29.3596 50.5404 29.9139 49.4115 30.1385C48.2825 30.363 47.1123 30.2478 46.0488 29.8073C44.9854 29.3668 44.0764 28.6208 43.4369 27.6637C42.7974 26.7066 42.456 25.5814 42.456 24.4303C42.456 23.2792 42.7974 22.154 43.4369 21.1969C44.0764 20.2398 44.9854 19.4938 46.0488 19.0533C47.1123 18.6128 48.2825 18.4976 49.4115 18.7221C50.5404 18.9467 51.5775 19.501 52.3914 20.315C53.4829 21.4064 54.096 22.8868 54.096 24.4303C54.096 25.9739 53.4829 27.4542 52.3914 28.5457Z" fill="url(#paint1_linear_23514_44413)"/>
</g>
<g filter="url(#filter2_f_23514_44413)">
<path d="M7.56122 65.0613L24.4214 58.9214L13.875 48.375L7.56122 65.0613Z" fill="url(#paint2_linear_23514_44413)"/>
</g>
<path d="M25.7916 27.1092L19.0856 26.8759C18.0466 26.8397 17.0141 27.0541 16.0754 27.5009C15.1366 27.9477 14.3191 28.6139 13.692 29.4431L5.90801 39.7378C5.78676 39.8983 5.71187 40.089 5.69149 40.2891C5.67112 40.4892 5.70604 40.6911 5.79246 40.8727C5.87888 41.0543 6.01348 41.2088 6.1816 41.3192C6.34972 41.4296 6.54492 41.4918 6.74593 41.499L14.6368 41.7735L25.7916 27.1092Z" fill="url(#paint3_linear_23514_44413)"/>
<path d="M12.6831 48.2205L24.4883 60.0256L27.7449 57.598L15.1104 44.9634L12.6831 48.2205Z" fill="url(#paint4_linear_23514_44413)"/>
<path d="M31.2102 65.9604C31.2173 66.1615 31.2795 66.3567 31.3899 66.5248C31.5004 66.6929 31.6548 66.8275 31.8364 66.9139C32.0181 67.0003 32.2199 67.0353 32.42 67.0149C32.6201 66.9945 32.8108 66.9196 32.9713 66.7984L43.2661 59.0144C44.0947 58.3872 44.7604 57.57 45.2069 56.6315C45.6534 55.6931 45.8677 54.661 45.8316 53.6224L45.5966 46.9182L30.934 58.0713L31.2102 65.9604Z" fill="url(#paint5_linear_23514_44413)"/>
<g opacity="0.96" filter="url(#filter3_d_23514_44413)">
<path d="M44.2603 28.6033C46.6034 30.9464 50.4024 30.9464 52.7456 28.6033C55.0887 26.2601 55.0887 22.4612 52.7456 20.118C50.4024 17.7749 46.6034 17.7749 44.2603 20.118C41.9171 22.4612 41.9171 26.2601 44.2603 28.6033Z" fill="white"/>
</g>
<circle cx="18" cy="10" r="2" fill="#FFEA7C"/>
<circle cx="14" cy="18" r="1" fill="#FFEA7C"/>
<circle cx="67.5" cy="50.5" r="2.5" fill="#FFEA7C"/>
</g>
<defs>
<filter id="filter0_d_23514_44413" x="-0.0446777" y="-7.01212" width="81.8901" height="81.8898" filterUnits="userSpaceOnUse" color-interpolation-filters="sRGB">
<feFlood flood-opacity="0" result="BackgroundImageFix"/>
<feColorMatrix in="SourceAlpha" type="matrix" values="0 0 0 0 0 0 0 0 0 0 0 0 0 0 0 0 0 0 127 0" result="hardAlpha"/>
<feOffset dy="2.12704"/>
<feGaussianBlur stdDeviation="8.50818"/>
<feComposite in2="hardAlpha" operator="out"/>
<feColorMatrix type="matrix" values="0 0 0 0 0 0 0 0 0 0 0 0 0 0 0 0 0 0 0.15 0"/>
<feBlend mode="normal" in2="BackgroundImageFix" result="effect1_dropShadow_23514_44413"/>
<feBlend mode="normal" in="SourceGraphic" in2="effect1_dropShadow_23514_44413" result="shape"/>
</filter>
<filter id="filter1_bi_23514_44413" x="-3.02832" y="-12.1228" width="87.8574" height="87.8571" filterUnits="userSpaceOnUse" color-interpolation-filters="sRGB">
<feFlood flood-opacity="0" result="BackgroundImageFix"/>
<feGaussianBlur in="BackgroundImageFix" stdDeviation="10"/>
<feComposite in2="SourceAlpha" operator="in" result="effect1_backgroundBlur_23514_44413"/>
<feBlend mode="normal" in="SourceGraphic" in2="effect1_backgroundBlur_23514_44413" result="shape"/>
<feColorMatrix in="SourceAlpha" type="matrix" values="0 0 0 0 0 0 0 0 0 0 0 0 0 0 0 0 0 0 127 0" result="hardAlpha"/>
<feOffset dy="-1"/>
<feGaussianBlur stdDeviation="4"/>
<feComposite in2="hardAlpha" operator="arithmetic" k2="-1" k3="1"/>
<feColorMatrix type="matrix" values="0 0 0 0 1 0 0 0 0 1 0 0 0 0 1 0 0 0 0.4 0"/>
<feBlend mode="normal" in2="shape" result="effect2_innerShadow_23514_44413"/>
</filter>
<filter id="filter2_f_23514_44413" x="1.56152" y="42.375" width="28.8604" height="28.6864" filterUnits="userSpaceOnUse" color-interpolation-filters="sRGB">
<feFlood flood-opacity="0" result="BackgroundImageFix"/>
<feBlend mode="normal" in="SourceGraphic" in2="BackgroundImageFix" result="shape"/>
<feGaussianBlur stdDeviation="3" result="effect1_foregroundBlur_23514_44413"/>
</filter>
<filter id="filter3_d_23514_44413" x="39.5029" y="16.3606" width="18" height="18" filterUnits="userSpaceOnUse" color-interpolation-filters="sRGB">
<feFlood flood-opacity="0" result="BackgroundImageFix"/>
<feColorMatrix in="SourceAlpha" type="matrix" values="0 0 0 0 0 0 0 0 0 0 0 0 0 0 0 0 0 0 127 0" result="hardAlpha"/>
<feOffset dy="1"/>
<feGaussianBlur stdDeviation="1.5"/>
<feComposite in2="hardAlpha" operator="out"/>
<feColorMatrix type="matrix" values="0 0 0 0 1 0 0 0 0 1 0 0 0 0 1 0 0 0 0.35 0"/>
<feBlend mode="normal" in2="BackgroundImageFix" result="effect1_dropShadow_23514_44413"/>
<feBlend mode="normal" in="SourceGraphic" in2="effect1_dropShadow_23514_44413" result="shape"/>
</filter>
<linearGradient id="paint0_linear_23514_44413" x1="67.1656" y1="16.368" x2="34.6812" y2="4.95099" gradientUnits="userSpaceOnUse">
<stop stop-color="#29FFFF"/>
<stop offset="1" stop-color="#E023FF"/>
</linearGradient>
<linearGradient id="paint1_linear_23514_44413" x1="64.8296" y1="7.87765" x2="23.5911" y2="49.1161" gradientUnits="userSpaceOnUse">
<stop stop-color="#38CFFF"/>
<stop offset="1" stop-color="#ED7DFF" stop-opacity="0.12"/>
</linearGradient>
<linearGradient id="paint2_linear_23514_44413" x1="19.1482" y1="53.6482" x2="3.73812" y2="69.0583" gradientUnits="userSpaceOnUse">
<stop stop-color="#FFCB11"/>
<stop offset="1" stop-color="#FFDD63" stop-opacity="0.83"/>
</linearGradient>
<linearGradient id="paint3_linear_23514_44413" x1="24.2058" y1="25.5234" x2="7.27963" y2="42.4496" gradientUnits="userSpaceOnUse">
<stop offset="0.0729167" stop-color="#E1D4FF"/>
<stop offset="1" stop-color="#5D9DFE"/>
</linearGradient>
<linearGradient id="paint4_linear_23514_44413" x1="21.4276" y1="51.2807" x2="18.5855" y2="54.1228" gradientUnits="userSpaceOnUse">
<stop stop-color="#FFCF71"/>
<stop offset="1" stop-color="#FFD02A"/>
</linearGradient>
<linearGradient id="paint5_linear_23514_44413" x1="47.1822" y1="48.5039" x2="30.2595" y2="65.4266" gradientUnits="userSpaceOnUse">
<stop offset="0.0729167" stop-color="#E1D4FF"/>
<stop offset="1" stop-color="#5D9DFE"/>
</linearGradient>
<clipPath id="clip0_23514_44413">
<rect width="72" height="72" fill="white"/>
</clipPath>
</defs>
</svg>
