<svg width="12" height="12" viewBox="0 0 12 12" fill="none" xmlns="http://www.w3.org/2000/svg">
<path fill-rule="evenodd" clip-rule="evenodd" d="M10.024 3.17579C10.1364 3.28831 10.1996 3.4409 10.1996 3.59999C10.1996 3.75909 10.1364 3.91168 10.024 4.02419L5.22396 8.82419C5.11144 8.93668 4.95885 8.99987 4.79976 8.99987C4.64066 8.99987 4.48807 8.93668 4.37556 8.82419L1.97556 6.42419C1.86626 6.31103 1.80578 6.15947 1.80715 6.00215C1.80852 5.84484 1.87162 5.69435 1.98286 5.5831C2.09411 5.47186 2.2446 5.40876 2.40192 5.40739C2.55923 5.40602 2.71079 5.4665 2.82396 5.57579L4.79976 7.55159L9.17556 3.17579C9.28807 3.06331 9.44066 3.00012 9.59975 3.00012C9.75885 3.00012 9.91144 3.06331 10.024 3.17579Z" fill="currentColor" stroke="currentColor"/>
</svg>
