<svg width="16" height="16" viewBox="0 0 16 16" fill="none" xmlns="http://www.w3.org/2000/svg">
<g opacity="0.7">
<path d="M8 0.102539L8.23804 1.22815C8.7916 3.84572 9.06837 5.1545 9.95707 6.0432C10.8458 6.93189 12.1545 7.20867 14.7721 7.76223L15.8977 8.00027L14.7721 8.23831C12.1545 8.79186 10.8458 9.06864 9.95707 9.95733C9.06837 10.846 8.79159 12.1548 8.23804 14.7724L8 15.898L7.76196 14.7724C7.20841 12.1548 6.93163 10.846 6.04293 9.95733C5.15424 9.06864 3.84545 8.79186 1.22788 8.23831L0.102272 8.00027L1.22788 7.76223C3.84545 7.20867 5.15424 6.93189 6.04293 6.0432C6.93163 5.1545 7.2084 3.84572 7.76196 1.22815L8 0.102539Z" fill="white"/>
</g>
</svg>
